<?xml version="1.0"?>
<svg xmlns="http://www.w3.org/2000/svg" viewBox="0 0 64 64" width="512" height="512"><path d="m54 10h4v20h-4z" fill="#3f4e56"/><path d="m43 29h13v15h-13z" fill="#d1d3d3"/><path d="m52.753 8.995-34.753-3 .247-1.99 34.753 3z" fill="#3f4e56"/><path d="m56 29h6v33h-6z" fill="#4accf4"/><path d="m17.5 19a4.50491 4.50491 0 0 1 -4.5-4.5h2a2.5 2.5 0 1 0 2.5-2.5h-.5a.99974.99974 0 0 1 -1-1v-5h2v4.02734a4.50028 4.50028 0 0 1 -.5 8.97266z" fill="#3f4e56"/><path d="m3.41048 29-.89705-2.41369 14.03942-9.44394a.7797.7797 0 0 1 .924.01845l13.0366 9.44394-.95091 2.37679-12.57831-9.11192z" fill="#58676d"/><path d="m2 25h30v14h-30z" fill="#e86049"/><path d="m2 39h30v-14z" fill="#ed4720"/><g fill="#3f4e56"><path d="m6 28h2v8h-2z"/><path d="m11 28h2v8h-2z"/><path d="m16 28h2v8h-2z"/><path d="m21 28h2v8h-2z"/><path d="m26 28h2v8h-2z"/></g><path d="m2 48h30v14h-30z" fill="#5581b7"/><path d="m2 62h30v-14z" fill="#3669b2"/><path d="m6 51h2v8h-2z" fill="#3f4e56"/><path d="m11 51h2v8h-2z" fill="#3f4e56"/><path d="m16 51h2v8h-2z" fill="#3f4e56"/><path d="m21 51h2v8h-2z" fill="#3f4e56"/><path d="m26 51h2v8h-2z" fill="#3f4e56"/><circle cx="56" cy="7" fill="#1550af" r="4"/><path d="m56 58.67 6-3.133v-3.332l-4.664-3.044 4.664-2.435v-3.332l-4.664-3.044 4.664-2.435v-3.332l-5.95-3.883-.05.047v2.469l4.664 3.044-4.664 2.435v3.332l4.664 3.044-4.664 2.435v3.332l4.664 3.044-4.664 2.435z" fill="#1550af"/><path d="m56 29h-13v6.067z" fill="#dae4e5"/><path d="m40 44h16v18h-16z" fill="#7e898c"/><circle cx="56" cy="7" fill="#032351" r="2"/><path d="m14 2h6v5h-6z" fill="#1550af"/></svg>
