<svg id="Capa_1" enable-background="new 0 0 512 512" height="512" viewBox="0 0 512 512" width="512" xmlns="http://www.w3.org/2000/svg"><g><g><path d="m211.319 340.406 2.418-2.418c4.281 2.188 8.734 4.034 13.321 5.524v3.41c0 8.465 6.886 15.351 15.351 15.351h26.19c8.464 0 15.351-6.886 15.351-15.351v-3.412c4.571-1.487 9.022-3.334 13.317-5.526l2.422 2.422c5.951 5.951 15.668 5.963 21.689 0l18.537-18.538c5.95-5.951 5.961-15.669 0-21.688l-2.419-2.418c2.187-4.28 4.034-8.734 5.524-13.322h3.41c8.45 0 15.323-6.886 15.323-15.351v-26.19c0-8.465-6.874-15.351-15.323-15.351h-3.412c-1.487-4.571-3.335-9.023-5.526-13.317l2.423-2.424c5.95-5.951 5.961-15.669-.005-21.691l-18.532-18.505c-2.898-2.898-6.751-4.492-10.854-4.492-.013 0-.025 0-.037 0-4.102.009-7.946 1.614-10.786 4.481l-2.422 2.411c-4.299-2.195-8.754-4.044-13.329-5.533v-3.412c0-8.449-6.886-15.323-15.351-15.323h-26.19c-8.464 0-15.351 6.874-15.351 15.323v3.41c-4.591 1.491-9.049 3.34-13.333 5.53l-2.382-2.371c-2.887-2.913-6.747-4.517-10.869-4.517s-7.982 1.604-10.839 4.488l-18.567 18.538c-5.935 5.993-5.924 15.711.025 21.663l2.423 2.423c-2.191 4.295-4.039 8.746-5.526 13.317h-3.412c-8.449 0-15.322 6.886-15.322 15.351v26.19c0 8.465 6.874 15.351 15.322 15.351h3.41c1.49 4.588 3.337 9.041 5.524 13.322l-2.444 2.444c-5.935 5.993-5.924 15.711.025 21.663l18.537 18.537c5.951 5.952 15.67 5.964 21.689.001zm-29.619-29.62 6.406-6.406c2.427-2.427 2.896-6.193 1.14-9.141-3.73-6.26-6.543-13.041-8.36-20.154-.848-3.321-3.839-5.644-7.266-5.644h-9.041c-.153 0-.323-.145-.323-.352v-26.19c0-.189.178-.352.323-.352h9.041c3.428 0 6.419-2.323 7.266-5.644 1.806-7.067 4.62-13.852 8.367-20.166 1.749-2.948 1.277-6.706-1.146-9.13l-6.406-6.405c-.104-.104-.11-.367-.005-.474l18.566-18.537c.098-.1.293-.135.463.036l6.406 6.378c2.43 2.418 6.188 2.882 9.13 1.128 6.261-3.731 13.042-6.544 20.154-8.36 3.32-.848 5.643-3.839 5.643-7.266v-9.041c0-.16.178-.324.352-.324h26.19c.174 0 .352.164.352.324v9.041c0 3.427 2.323 6.418 5.643 7.266 7.066 1.805 13.851 4.62 20.166 8.367 2.942 1.746 6.693 1.278 9.119-1.135l6.442-6.414c.021-.022.073-.075.202-.075h.001c.149 0 .222.072.253.103l18.507 18.479c.136.137.129.399.025.502l-6.406 6.406c-2.424 2.424-2.895 6.182-1.146 9.13 3.747 6.314 6.561 13.098 8.367 20.166.848 3.321 3.839 5.644 7.266 5.644h9.041c.146 0 .324.163.324.352v26.19c0 .208-.171.352-.324.352h-9.041c-3.428 0-6.419 2.323-7.266 5.644-1.817 7.113-4.63 13.894-8.36 20.154-1.757 2.949-1.287 6.714 1.14 9.141l6.38 6.38c.136.137.129.399.025.502l-18.511 18.512c-.139.139-.397.129-.501.025l-6.406-6.406c-2.425-2.424-6.183-2.896-9.13-1.146-6.315 3.747-13.1 6.562-20.165 8.367-3.321.848-5.644 3.839-5.644 7.266v9.042c0 .168-.184.352-.352.352h-26.19c-.168 0-.352-.184-.352-.352v-9.042c0-3.427-2.323-6.419-5.644-7.266-7.111-1.816-13.892-4.629-20.153-8.36-1.192-.711-2.518-1.057-3.836-1.057-1.94 0-3.86.751-5.306 2.197l-6.38 6.381c-.14.139-.397.129-.501.025l-18.539-18.535c-.103-.104-.11-.366 0-.478z"/><path d="m214.281 267.338 24.971 22.336c1.379 1.234 3.161 1.91 5 1.91.174 0 .348-.006.522-.018 2.02-.141 3.898-1.094 5.206-2.641l47.447-56.15c2.674-3.164 2.276-7.895-.888-10.569-3.163-2.673-7.896-2.276-10.569.888l-42.469 50.258-19.221-17.193c-3.087-2.762-7.829-2.496-10.589.59-2.761 3.087-2.498 7.828.59 10.589z"/><path d="m154.421 390.721c-42.697-32.221-67.175-81.307-67.175-134.726 0-82.054 59.25-152.012 139.161-166.116v18.329c0 .046 0 .093.001.14.144 7.713 3.903 14.258 10.056 17.508 6.007 3.174 13.169 2.724 19.156-1.2.11-.073.219-.148.325-.226l60.718-44.572c6.15-3.824 9.668-9.599 9.668-15.895-.001-6.298-3.521-12.074-9.674-15.898l-60.715-44.543c-.106-.078-.214-.152-.324-.225-5.984-3.925-13.147-4.373-19.156-1.199-6.153 3.25-9.911 9.795-10.055 17.508-.001.046-.001.093-.001.139v14.071c-45.805 6.021-87.914 25.711-122.146 57.193-3.049 2.804-3.247 7.548-.443 10.597 2.804 3.048 7.546 3.247 10.597.443 33.503-30.811 75.084-49.518 120.248-54.096 3.83-.388 6.744-3.613 6.744-7.461v-20.668c.054-2.174.804-3.798 2.062-4.464 1.089-.575 2.464-.429 3.795.396l60.779 44.589c.183.134.371.259.565.376 1.681 1.012 2.724 2.253 2.724 3.241 0 .987-1.045 2.229-2.724 3.241-.197.119-.389.246-.573.382l-60.772 44.612c-1.332.825-2.706.97-3.793.395-1.26-.665-2.01-2.29-2.063-4.464v-26.961c0-2.151-.924-4.198-2.536-5.622-1.611-1.423-3.755-2.089-5.893-1.819-91.631 11.446-160.73 89.805-160.73 182.268 0 29.371 6.727 57.436 19.995 83.416 12.648 24.766 31.114 46.716 53.403 63.477.169.127.343.247.521.358 6.641 4.168 10.242 9.821 9.876 15.507-.264 4.098-2.647 7.668-6.22 9.316-5.097 2.35-12.027.701-19.015-4.529-51.098-38.219-81.651-96.611-83.837-160.219v-14.655c1.508-44.169 16.633-85.959 43.744-120.865 2.541-3.271 1.949-7.982-1.322-10.523-3.27-2.54-7.983-1.95-10.523 1.323-29.087 37.45-45.303 82.295-46.894 129.687-.003.083-.004.167-.004.251v14.909c0 .084.001.169.004.253 2.305 68.23 35.053 130.867 89.848 171.85 7.564 5.658 15.54 8.568 23.026 8.568 3.931 0 7.727-.802 11.256-2.431 8.579-3.956 14.29-12.377 14.906-21.975.722-11.257-5.32-21.808-16.59-28.991z"/><path d="m456.503 155.938c-14.868-29.745-36.627-56.292-62.934-76.783-10.502-8.749-22.462-11.484-32.829-7.5-9.011 3.463-15.446 11.575-16.794 21.17-1.475 10.504 3.238 20.721 12.957 28.049 43.03 32.181 67.709 81.43 67.709 135.12 0 82.08-59.251 152.04-139.162 166.12v-18.333c0-.046 0-.093-.001-.139-.143-7.689-3.894-14.222-10.034-17.475-6.004-3.181-13.166-2.749-19.161 1.156-.116.076-.229.155-.342.236l-60.716 44.572c-6.15 3.824-9.669 9.599-9.669 15.896.001 6.296 3.519 12.07 9.668 15.894l60.717 44.572c.111.082.226.161.342.237 3.332 2.172 7.025 3.27 10.681 3.269 2.919 0 5.814-.7 8.48-2.113 6.14-3.254 9.892-9.786 10.034-17.475.001-.046.001-.093.001-.139v-14.099c44.146-5.8 85.053-24.407 118.685-54.056 3.106-2.739 3.405-7.478.666-10.585-2.738-3.107-7.477-3.406-10.585-.666-32.972 29.068-73.437 46.762-117.02 51.168-3.83.387-6.745 3.612-6.745 7.461v20.695c-.053 2.159-.802 3.777-2.059 4.443-1.093.579-2.473.44-3.805-.379l-60.764-44.606c-.185-.136-.376-.263-.572-.381-1.681-1.012-2.724-2.253-2.724-3.241 0-.987 1.045-2.229 2.724-3.241.197-.119.389-.246.573-.382l60.762-44.605c1.334-.819 2.714-.957 3.806-.379 1.258.666 2.007 2.285 2.059 4.443v26.959c0 2.151.923 4.197 2.535 5.621 1.612 1.423 3.752 2.087 5.892 1.821 91.633-11.417 160.732-89.776 160.732-182.27 0-29.438-6.755-57.562-20.08-83.589-12.71-24.829-31.261-46.802-53.621-63.525-5.291-3.989-7.817-8.95-7.112-13.968.591-4.201 3.396-7.748 7.322-9.257 5.24-2.013 11.606-.208 17.924 5.087.069.058.14.115.211.17 51.334 39.937 80.776 100.107 80.776 165.082 0 48.341-16.868 95.47-47.497 132.705-2.632 3.199-2.172 7.925 1.027 10.556s7.925 2.172 10.556-1.027c32.832-39.913 50.913-90.426 50.913-142.234.001-35.161-7.915-68.825-23.526-100.055z"/></g></g></svg>